<?xml version="1.0" standalone="no"?>
<!DOCTYPE svg PUBLIC "-//W3C//DTD SVG 20010904//EN"
 "http://www.w3.org/TR/2001/REC-SVG-20010904/DTD/svg10.dtd">
<svg version="1.0" xmlns="http://www.w3.org/2000/svg"
 width="500.000000pt" height="500.000000pt" viewBox="0 0 500.000000 500.000000"
 preserveAspectRatio="xMidYMid meet">
<metadata>
Created by potrace 1.11, written by Peter Selinger 2001-2013
</metadata>
<g transform="translate(0.000000,500.000000) scale(0.100000,-0.100000)"
fill="#000000" stroke="none">
<path d="M1360 3283 c-34 -137 -63 -256 -65 -266 -2 -9 -50 -200 -105 -425
-56 -224 -103 -414 -105 -422 -2 -8 -31 -125 -65 -260 -34 -135 -63 -252 -65
-260 -2 -8 -8 -35 -15 -60 -7 -25 -14 -54 -16 -65 -2 -11 -10 -41 -18 -67 -7
-26 -11 -49 -8 -52 3 -4 41 -6 84 -6 43 0 78 -1 78 -2 0 -2 -7 -28 -15 -58 -8
-30 -15 -58 -15 -63 0 -4 64 -6 142 -5 l142 3 158 695 c87 382 158 703 158
713 0 9 4 17 8 17 5 0 14 -37 21 -82 7 -46 18 -114 26 -153 7 -38 16 -88 20
-110 10 -68 35 -219 40 -242 5 -20 12 -23 59 -23 61 0 61 0 71 -84 l7 -57 106
3 106 3 195 347 c107 191 197 346 199 343 2 -2 -3 -48 -13 -102 -9 -54 -18
-107 -20 -118 -1 -11 -14 -90 -29 -175 -26 -150 -30 -174 -41 -242 -15 -91
-49 -276 -70 -383 -14 -66 -26 -131 -29 -145 -2 -14 -7 -37 -11 -52 l-7 -28
82 0 c80 0 82 -1 77 -22 -4 -13 -9 -42 -13 -65 l-7 -43 152 0 c148 0 151 0
155 23 2 12 35 180 73 372 l69 350 200 7 c231 8 328 20 439 55 278 87 489 284
576 535 87 254 49 486 -101 620 -34 29 -94 83 -134 119 -89 79 -190 131 -301
153 -16 3 -43 9 -60 13 -16 3 -238 8 -491 10 l-462 4 -20 -33 c-11 -18 -31
-53 -45 -78 -13 -25 -98 -175 -189 -335 -91 -159 -183 -324 -206 -365 -25 -45
-43 -69 -46 -60 -4 13 -116 719 -116 734 0 3 -29 6 -64 6 l-63 0 -7 50 c-11
86 1 80 -181 80 l-163 0 -62 -247z m2182 -144 c86 -19 105 -32 116 -86 33
-155 -31 -357 -153 -478 -79 -80 -178 -130 -320 -162 -11 -2 -73 -7 -137 -10
-111 -5 -117 -5 -112 13 2 11 34 170 70 354 36 184 68 345 71 358 5 22 6 22
209 22 112 0 227 -5 256 -11z"/>
</g>
</svg>
